<svg xmlns="http://www.w3.org/2000/svg" xmlns:xlink="http://www.w3.org/1999/xlink" contentStyleType="text/css" height="777px" preserveAspectRatio="none" style="width:1052px;height:777px;background:#FFFFFF;" version="1.1" viewBox="0 0 1052 777" width="1052px" zoomAndPan="magnify"><title>Todo stack &#8212; module dependencies</title><defs/><g><text fill="#000000" font-family="sans-serif" font-size="14" font-weight="bold" lengthAdjust="spacing" textLength="249.871" x="362.5645" y="24.9659">Todo stack &#8212; module dependencies</text><!--cluster apiLayer--><g id="cluster_apiLayer"><rect fill="none" height="344.5" rx="2.5" ry="2.5" style="stroke:#444444;stroke-width:1;stroke-dasharray:7.0,7.0;" width="243" x="214" y="237.5679"/><text fill="#444444" font-family="sans-serif" font-size="16" font-weight="bold" lengthAdjust="spacing" textLength="24.48" x="323.26" y="276.672">api</text><text fill="#444444" font-family="sans-serif" font-size="12" font-weight="bold" lengthAdjust="spacing" textLength="65.7485" x="302.6258" y="294.1881">[container]</text></g><!--cluster appLayer--><g id="cluster_appLayer"><rect fill="none" height="340" rx="2.5" ry="2.5" style="stroke:#444444;stroke-width:1;stroke-dasharray:7.0,7.0;" width="188" x="14" y="431.0679"/><text fill="#444444" font-family="sans-serif" font-size="16" font-weight="bold" lengthAdjust="spacing" textLength="89.3282" x="63.3359" y="470.172">application</text><text fill="#444444" font-family="sans-serif" font-size="12" font-weight="bold" lengthAdjust="spacing" textLength="65.7485" x="75.1258" y="487.6881">[container]</text></g><!--cluster domainLayer--><g id="cluster_domainLayer"><rect fill="none" height="151" rx="2.5" ry="2.5" style="stroke:#444444;stroke-width:1;stroke-dasharray:7.0,7.0;" width="324" x="210" y="620.0679"/><text fill="#444444" font-family="sans-serif" font-size="16" font-weight="bold" lengthAdjust="spacing" textLength="60.4801" x="341.7599" y="659.172">domain</text><text fill="#444444" font-family="sans-serif" font-size="12" font-weight="bold" lengthAdjust="spacing" textLength="65.7485" x="339.1258" y="676.6881">[container]</text></g><!--cluster infraLayer--><g id="cluster_infraLayer"><rect fill="none" height="538" rx="2.5" ry="2.5" style="stroke:#444444;stroke-width:1;stroke-dasharray:7.0,7.0;" width="342" x="542" y="233.0679"/><text fill="#444444" font-family="sans-serif" font-size="16" font-weight="bold" lengthAdjust="spacing" textLength="209.8084" x="608.0958" y="272.172">infrastructure.persistence</text><text fill="#444444" font-family="sans-serif" font-size="12" font-weight="bold" lengthAdjust="spacing" textLength="65.7485" x="680.1258" y="289.6881">[container]</text></g><!--cluster coreLayer--><g id="cluster_coreLayer"><rect fill="none" height="151" rx="2.5" ry="2.5" style="stroke:#444444;stroke-width:1;stroke-dasharray:7.0,7.0;" width="320" x="664" y="44.0679"/><text fill="#444444" font-family="sans-serif" font-size="16" font-weight="bold" lengthAdjust="spacing" textLength="34.9601" x="806.52" y="83.172">core</text><text fill="#444444" font-family="sans-serif" font-size="12" font-weight="bold" lengthAdjust="spacing" textLength="65.7485" x="791.1258" y="100.6881">[container]</text></g><!--entity router--><g id="elem_router"><rect fill="#85BBF0" height="74.4803" rx="2.5" ry="2.5" style="stroke:#78A8D8;stroke-width:0.5;" width="94.9441" x="353.5" y="306.5679"/><text fill="#000000" font-family="sans-serif" font-size="12" font-style="italic" lengthAdjust="spacing" textLength="71.7125" x="365.1158" y="329.396">&#171;component&#187;</text><text fill="#000000" font-family="sans-serif" font-size="16" font-weight="bold" lengthAdjust="spacing" textLength="74.9441" x="363.5" y="350.0161">router.py</text><text fill="#000000" font-family="sans-serif" font-size="12" font-style="italic" lengthAdjust="spacing" textLength="46.1043" x="377.9199" y="367.5322">[FastAPI]</text></g><!--entity schemas--><g id="elem_schemas"><rect fill="#85BBF0" height="74.4803" rx="2.5" ry="2.5" style="stroke:#78A8D8;stroke-width:0.5;" width="113.2002" x="222.5" y="306.5679"/><text fill="#000000" font-family="sans-serif" font-size="12" font-style="italic" lengthAdjust="spacing" textLength="71.7125" x="243.2438" y="329.396">&#171;component&#187;</text><text fill="#000000" font-family="sans-serif" font-size="16" font-weight="bold" lengthAdjust="spacing" textLength="93.2002" x="232.5" y="350.0161">schemas.py</text><text fill="#000000" font-family="sans-serif" font-size="12" font-style="italic" lengthAdjust="spacing" textLength="52.5964" x="252.8019" y="367.5322">[Pydantic]</text></g><!--entity apiMappers--><g id="elem_apiMappers"><rect fill="#85BBF0" height="74.4803" rx="2.5" ry="2.5" style="stroke:#78A8D8;stroke-width:0.5;" width="113.8882" x="294" y="500.0679"/><text fill="#000000" font-family="sans-serif" font-size="12" font-style="italic" lengthAdjust="spacing" textLength="71.7125" x="315.0878" y="522.896">&#171;component&#187;</text><text fill="#000000" font-family="sans-serif" font-size="16" font-weight="bold" lengthAdjust="spacing" textLength="93.8882" x="304" y="543.5161">mappers.py</text><text fill="#000000" font-family="sans-serif" font-size="12" font-style="italic" lengthAdjust="spacing" textLength="44.0043" x="328.9419" y="561.0322">[Python]</text></g><!--entity useCases--><g id="elem_useCases"><rect fill="#85BBF0" height="74.4803" rx="2.5" ry="2.5" style="stroke:#78A8D8;stroke-width:0.5;" width="170.7042" x="22.5" y="500.0679"/><text fill="#000000" font-family="sans-serif" font-size="12" font-style="italic" lengthAdjust="spacing" textLength="71.7125" x="71.9959" y="522.896">&#171;component&#187;</text><text fill="#000000" font-family="sans-serif" font-size="16" font-weight="bold" lengthAdjust="spacing" textLength="66.9121" x="32.5" y="543.5161">users.py</text><text fill="#000000" font-family="sans-serif" font-size="16" font-weight="bold" lengthAdjust="spacing" textLength="4.16" x="99.4121" y="543.5161">&#160;</text><text fill="#000000" font-family="sans-serif" font-size="16" font-weight="bold" lengthAdjust="spacing" textLength="6.64" x="103.5721" y="543.5161">/</text><text fill="#000000" font-family="sans-serif" font-size="16" font-weight="bold" lengthAdjust="spacing" textLength="4.16" x="110.2121" y="543.5161">&#160;</text><text fill="#000000" font-family="sans-serif" font-size="16" font-weight="bold" lengthAdjust="spacing" textLength="68.8321" x="114.3721" y="543.5161">todos.py</text><text fill="#000000" font-family="sans-serif" font-size="12" font-style="italic" lengthAdjust="spacing" textLength="44.0043" x="85.85" y="561.0322">[Python]</text></g><!--entity appErrors--><g id="elem_appErrors"><rect fill="#85BBF0" height="74.4803" rx="2.5" ry="2.5" style="stroke:#78A8D8;stroke-width:0.5;" width="92.7841" x="88.5" y="689.0679"/><text fill="#000000" font-family="sans-serif" font-size="12" font-style="italic" lengthAdjust="spacing" textLength="71.7125" x="99.0358" y="711.896">&#171;component&#187;</text><text fill="#000000" font-family="sans-serif" font-size="16" font-weight="bold" lengthAdjust="spacing" textLength="72.7841" x="98.5" y="732.5161">errors.py</text><text fill="#000000" font-family="sans-serif" font-size="12" font-style="italic" lengthAdjust="spacing" textLength="44.0043" x="112.8899" y="750.0322">[Python]</text></g><!--entity entity--><g id="elem_entity"><rect fill="#85BBF0" height="74.4803" rx="2.5" ry="2.5" style="stroke:#78A8D8;stroke-width:0.5;" width="91.7125" x="434" y="689.0679"/><text fill="#000000" font-family="sans-serif" font-size="12" font-style="italic" lengthAdjust="spacing" textLength="71.7125" x="444" y="711.896">&#171;component&#187;</text><text fill="#000000" font-family="sans-serif" font-size="16" font-weight="bold" lengthAdjust="spacing" textLength="71.5041" x="444.1042" y="732.5161">entity.py</text><text fill="#000000" font-family="sans-serif" font-size="12" font-style="italic" lengthAdjust="spacing" textLength="44.0043" x="457.8541" y="750.0322">[Python]</text></g><!--entity port--><g id="elem_port"><rect fill="#85BBF0" height="74.4803" rx="2.5" ry="2.5" style="stroke:#78A8D8;stroke-width:0.5;" width="197.8243" x="218" y="689.0679"/><text fill="#000000" font-family="sans-serif" font-size="12" font-style="italic" lengthAdjust="spacing" textLength="71.7125" x="281.0559" y="711.896">&#171;component&#187;</text><text fill="#000000" font-family="sans-serif" font-size="16" font-weight="bold" lengthAdjust="spacing" textLength="106.6082" x="228" y="732.5161">repository.py</text><text fill="#000000" font-family="sans-serif" font-size="16" font-weight="bold" lengthAdjust="spacing" textLength="4.16" x="334.6082" y="732.5161">&#160;</text><text fill="#000000" font-family="sans-serif" font-size="16" font-weight="bold" lengthAdjust="spacing" textLength="67.0561" x="338.7682" y="732.5161">Protocol</text><text fill="#000000" font-family="sans-serif" font-size="12" font-style="italic" lengthAdjust="spacing" textLength="44.0043" x="294.91" y="750.0322">[Python]</text></g><!--entity orm--><g id="elem_orm"><rect fill="#85BBF0" height="74.4803" rx="2.5" ry="2.5" style="stroke:#78A8D8;stroke-width:0.5;" width="91.7245" x="678" y="689.0679"/><text fill="#000000" font-family="sans-serif" font-size="12" font-style="italic" lengthAdjust="spacing" textLength="71.7125" x="688.006" y="711.896">&#171;component&#187;</text><text fill="#000000" font-family="sans-serif" font-size="16" font-weight="bold" lengthAdjust="spacing" textLength="56.4961" x="695.6142" y="732.5161">orm.py</text><text fill="#000000" font-family="sans-serif" font-size="12" font-style="italic" lengthAdjust="spacing" textLength="71.7245" x="688" y="750.0322">[SQLAlchemy]</text></g><!--entity adapter--><g id="elem_adapter"><rect fill="#85BBF0" height="74.4803" rx="2.5" ry="2.5" style="stroke:#78A8D8;stroke-width:0.5;" width="169.821" x="706" y="306.5679"/><text fill="#000000" font-family="sans-serif" font-size="12" font-style="italic" lengthAdjust="spacing" textLength="71.7125" x="755.0543" y="329.396">&#171;component&#187;</text><text fill="#000000" font-family="sans-serif" font-size="16" font-weight="bold" lengthAdjust="spacing" textLength="106.6082" x="737.6064" y="350.0161">repository.py</text><text fill="#000000" font-family="sans-serif" font-size="12" font-style="italic" lengthAdjust="spacing" textLength="149.821" x="716" y="367.5322">[SqlAlchemyTodoRepository]</text></g><!--entity mapper--><g id="elem_mapper"><rect fill="#85BBF0" height="74.4803" rx="2.5" ry="2.5" style="stroke:#78A8D8;stroke-width:0.5;" width="105.8561" x="671" y="500.0679"/><text fill="#000000" font-family="sans-serif" font-size="12" font-style="italic" lengthAdjust="spacing" textLength="71.7125" x="688.0718" y="522.896">&#171;component&#187;</text><text fill="#000000" font-family="sans-serif" font-size="16" font-weight="bold" lengthAdjust="spacing" textLength="85.8561" x="681" y="543.5161">mapper.py</text><text fill="#000000" font-family="sans-serif" font-size="12" font-style="italic" lengthAdjust="spacing" textLength="44.0043" x="701.9259" y="561.0322">[Python]</text></g><!--entity db--><g id="elem_db"><path d="M550,312.0679 C550,302.0679 618.9204,302.0679 618.9204,302.0679 C618.9204,302.0679 687.8408,302.0679 687.8408,312.0679 L687.8408,375.5482 C687.8408,385.5482 618.9204,385.5482 618.9204,385.5482 C618.9204,385.5482 550,385.5482 550,375.5482 L550,312.0679 " fill="#85BBF0" style="stroke:#78A8D8;stroke-width:0.5;"/><path d="M550,312.0679 C550,322.0679 618.9204,322.0679 618.9204,322.0679 C618.9204,322.0679 687.8408,322.0679 687.8408,312.0679 " fill="none" style="stroke:#78A8D8;stroke-width:0.5;"/><text fill="#000000" font-family="sans-serif" font-size="12" font-style="italic" lengthAdjust="spacing" textLength="71.7125" x="583.0642" y="338.896">&#171;component&#187;</text><text fill="#000000" font-family="sans-serif" font-size="16" font-weight="bold" lengthAdjust="spacing" textLength="97.2482" x="570.2963" y="359.5161">database.py</text><text fill="#000000" font-family="sans-serif" font-size="12" font-style="italic" lengthAdjust="spacing" textLength="75.6845" x="560" y="377.0322">[AsyncSession,</text><text fill="#000000" font-family="sans-serif" font-size="12" font-style="italic" lengthAdjust="spacing" textLength="3.12" x="635.6845" y="377.0322">&#160;</text><text fill="#000000" font-family="sans-serif" font-size="12" font-style="italic" lengthAdjust="spacing" textLength="39.0363" x="638.8045" y="377.0322">get_db]</text></g><!--entity deps--><g id="elem_deps"><rect fill="#85BBF0" height="74.4803" rx="2.5" ry="2.5" style="stroke:#78A8D8;stroke-width:0.5;" width="154.1602" x="672" y="113.0679"/><text fill="#000000" font-family="sans-serif" font-size="12" font-style="italic" lengthAdjust="spacing" textLength="71.7125" x="713.2239" y="135.896">&#171;component&#187;</text><text fill="#000000" font-family="sans-serif" font-size="16" font-weight="bold" lengthAdjust="spacing" textLength="134.1602" x="682" y="156.5161">dependencies.py</text><text fill="#000000" font-family="sans-serif" font-size="12" font-style="italic" lengthAdjust="spacing" textLength="49.4883" x="704.2658" y="174.0322">[Depends</text><text fill="#000000" font-family="sans-serif" font-size="12" font-style="italic" lengthAdjust="spacing" textLength="3.12" x="753.7541" y="174.0322">&#160;</text><text fill="#000000" font-family="sans-serif" font-size="12" font-style="italic" lengthAdjust="spacing" textLength="37.0202" x="756.8742" y="174.0322">wiring]</text></g><!--entity excHandlers--><g id="elem_excHandlers"><rect fill="#85BBF0" height="74.4803" rx="2.5" ry="2.5" style="stroke:#78A8D8;stroke-width:0.5;" width="130.6242" x="844.5" y="113.0679"/><text fill="#000000" font-family="sans-serif" font-size="12" font-style="italic" lengthAdjust="spacing" textLength="71.7125" x="873.9559" y="135.896">&#171;component&#187;</text><text fill="#000000" font-family="sans-serif" font-size="16" font-weight="bold" lengthAdjust="spacing" textLength="110.6242" x="854.5" y="156.5161">exceptions.py</text><text fill="#000000" font-family="sans-serif" font-size="12" font-style="italic" lengthAdjust="spacing" textLength="30.4682" x="867.1758" y="174.0322">[HTTP</text><text fill="#000000" font-family="sans-serif" font-size="12" font-style="italic" lengthAdjust="spacing" textLength="3.12" x="897.644" y="174.0322">&#160;</text><text fill="#000000" font-family="sans-serif" font-size="12" font-style="italic" lengthAdjust="spacing" textLength="51.6844" x="900.764" y="174.0322">mapping]</text></g><polygon fill="none" points="135.6129,499.9367,143.0477,495.7267,138.4463,491.8761,135.6129,499.9367" style="stroke:#666666;stroke-width:1;"/><path d="M353.4164,379.8345 C350.2858,381.6973 347.132,383.4603 344,385.0679 C287.9814,413.8213 263.1716,397.3393 210,431.0679 C181.1353,449.3778 159.5795,471.2965 140.747,493.8014 " fill="none" style="stroke:#666666;stroke-width:1;"/><text fill="#666666" font-family="sans-serif" font-size="12" font-weight="bold" lengthAdjust="spacing" textLength="58.6564" x="293" y="417.896">delegates</text><polygon fill="none" points="360.4473,499.8847,365.371,492.9021,359.5656,491.3863,360.4473,499.8847" style="stroke:#666666;stroke-width:1;"/><path d="M391.5954,380.5876 C382.6845,414.7164 371.3933,457.9617 362.4683,492.1442 " fill="none" style="stroke:#666666;stroke-width:1;"/><text fill="#666666" font-family="sans-serif" font-size="12" font-weight="bold" lengthAdjust="spacing" textLength="32.4962" x="387" y="417.896">maps</text><text fill="#666666" font-family="sans-serif" font-size="12" font-weight="bold" lengthAdjust="spacing" textLength="3.12" x="419.4962" y="417.896">&#160;</text><text fill="#666666" font-family="sans-serif" font-size="12" font-weight="bold" lengthAdjust="spacing" textLength="60.6484" x="422.6163" y="417.896">responses</text><polygon fill="none" points="280.0212,689.0127,276.3366,681.304,272.1764,685.6275,280.0212,689.0127" style="stroke:#666666;stroke-width:1;"/><path d="M152.3911,574.2431 C169.3589,588.3217 188.7644,604.7306 206,620.0679 C231.1673,642.4633 252.9173,662.9328 274.2565,683.4658 " fill="none" style="stroke:#666666;stroke-width:1;"/><text fill="#666666" font-family="sans-serif" font-size="12" font-weight="bold" lengthAdjust="spacing" textLength="27.0122" x="198" y="606.896">uses</text><polygon fill="none" points="470.8909,688.9644,471.181,680.4253,465.4947,682.3401,470.8909,688.9644" style="stroke:#666666;stroke-width:1;"/><path d="M188.2715,574.0909 C195.5618,576.9376 202.8798,579.6441 210,582.0679 C261.2261,599.506 274.6277,603.1464 328,612.0679 C349.3328,615.6338 406.9713,608.1194 425,620.0679 C448.7574,635.8131 460.3539,657.6731 468.3378,681.3827 " fill="none" style="stroke:#666666;stroke-width:1;"/><text fill="#666666" font-family="sans-serif" font-size="12" font-weight="bold" lengthAdjust="spacing" textLength="44.7243" x="330" y="606.896">returns</text><polygon fill="none" points="129.7641,688.8046,131.5901,680.458,125.6517,681.3154,129.7641,688.8046" style="stroke:#666666;stroke-width:1;"/><path d="M113.2059,574.1234 C117.9716,607.1307 123.8457,647.8141 128.6209,680.8867 " fill="none" style="stroke:#666666;stroke-width:1;"/><text fill="#666666" font-family="sans-serif" font-size="12" font-weight="bold" lengthAdjust="spacing" textLength="35.3523" x="121" y="606.896">raises</text><polygon fill="none" points="148.8145,688.9265,154.9298,682.9597,149.4985,680.4099,148.8145,688.9265" style="stroke:#666666;stroke-width:1;"/><path d="M922.5121,187.3196 C950.1702,274.8808 1005.208,499.0004 888,612.0679 C874.3647,625.2216 222.6808,611.0851 206,620.0679 C178.8753,634.6749 163.5838,657.4664 152.2142,681.6848 " fill="none" style="stroke:#666666;stroke-width:1;"/><text fill="#666666" font-family="sans-serif" font-size="12" font-weight="bold" lengthAdjust="spacing" textLength="32.4962" x="962" y="417.896">maps</text><text fill="#666666" font-family="sans-serif" font-size="12" font-weight="bold" lengthAdjust="spacing" textLength="3.12" x="994.4962" y="417.896">&#160;</text><text fill="#666666" font-family="sans-serif" font-size="12" font-weight="bold" lengthAdjust="spacing" textLength="12.7081" x="997.6163" y="417.896">to</text><text fill="#666666" font-family="sans-serif" font-size="12" font-weight="bold" lengthAdjust="spacing" textLength="3.12" x="1010.3244" y="417.896">&#160;</text><text fill="#666666" font-family="sans-serif" font-size="12" font-weight="bold" lengthAdjust="spacing" textLength="30.4802" x="1013.4444" y="417.896">HTTP</text><polygon fill="none" points="626.3274,301.9309,631.0777,294.8291,625.2367,293.4568,626.3274,301.9309" style="stroke:#666666;stroke-width:1;"/><path d="M685.7589,187.0832 C679.206,192.5305 673.0943,198.5386 668,205.0679 C645.8638,233.4397 635.0384,264.8543 628.1572,294.1429 " fill="none" style="stroke:#666666;stroke-width:1;"/><text fill="#666666" font-family="sans-serif" font-size="12" font-weight="bold" lengthAdjust="spacing" textLength="39.5523" x="670" y="219.896">injects</text><text fill="#666666" font-family="sans-serif" font-size="12" font-weight="bold" lengthAdjust="spacing" textLength="3.12" x="709.5523" y="219.896">&#160;</text><text fill="#666666" font-family="sans-serif" font-size="12" font-weight="bold" lengthAdjust="spacing" textLength="44.1243" x="712.6723" y="219.896">session</text><polygon fill="none" points="783.0643,306.3847,784.2808,297.9278,778.4201,299.2131,783.0643,306.3847" style="stroke:#666666;stroke-width:1;"/><path d="M756.8999,187.0876 C764.3851,221.2164 773.8535,264.3879 781.3504,298.5704 " fill="none" style="stroke:#666666;stroke-width:1;"/><text fill="#666666" font-family="sans-serif" font-size="12" font-weight="bold" lengthAdjust="spacing" textLength="39.5523" x="768" y="219.896">injects</text><text fill="#666666" font-family="sans-serif" font-size="12" font-weight="bold" lengthAdjust="spacing" textLength="3.12" x="807.5523" y="219.896">&#160;</text><text fill="#666666" font-family="sans-serif" font-size="12" font-weight="bold" lengthAdjust="spacing" textLength="62.1485" x="810.6723" y="219.896">repository</text><polygon fill="none" points="343.4294,688.9816,350.8299,684.7115,346.1974,680.8983,343.4294,688.9816" style="stroke:#666666;stroke-width:1;"/><path d="M707.4774,380.6088 C703.9389,382.1183 700.435,383.6098 697,385.0679 C648.2215,405.7745 625.3496,394.4973 587,431.0679 C522.5457,492.5324 573.6901,560.6054 501,612.0679 C473.2795,631.6933 455.7568,605.6597 425,620.0679 C392.0832,635.488 368.1561,658.9418 348.5136,682.8049 " fill="none" style="stroke:#666666;stroke-width:1;"/><text fill="#666666" font-family="sans-serif" font-size="12" font-weight="bold" lengthAdjust="spacing" textLength="71.5085" x="589" y="541.896">implements</text><polygon fill="none" points="736.6594,499.8847,742.133,493.3243,736.4696,491.3428,736.6594,499.8847" style="stroke:#666666;stroke-width:1;"/><path d="M778.3978,380.5876 C766.4572,414.7164 751.2608,458.151 739.3013,492.3335 " fill="none" style="stroke:#666666;stroke-width:1;"/><text fill="#666666" font-family="sans-serif" font-size="12" font-weight="bold" lengthAdjust="spacing" textLength="27.0122" x="772" y="417.896">uses</text><polygon fill="none" points="724,688.8046,727,680.8046,721,680.8046,724,688.8046" style="stroke:#666666;stroke-width:1;"/><path d="M724,574.1234 C724,607.1307 724,647.732 724,680.8046 " fill="none" style="stroke:#666666;stroke-width:1;"/><text fill="#666666" font-family="sans-serif" font-size="12" font-weight="bold" lengthAdjust="spacing" textLength="28.6802" x="726" y="606.896">ORM</text><text fill="#666666" font-family="sans-serif" font-size="12" font-weight="bold" lengthAdjust="spacing" textLength="3.12" x="754.6802" y="606.896">&#160;</text><text fill="#666666" font-family="sans-serif" font-size="12" font-weight="bold" lengthAdjust="spacing" textLength="53.0284" x="757.8002" y="606.896">mapping</text><polygon fill="none" points="493.0375,688.8367,498.9493,682.6682,493.4356,680.302,493.0375,688.8367" style="stroke:#666666;stroke-width:1;"/><path d="M670.7182,551.4729 C630.4211,563.8173 575.765,585.5382 538,620.0679 C517.4819,638.8283 505.7457,659.2249 496.1925,681.4851 " fill="none" style="stroke:#666666;stroke-width:1;"/><text fill="#666666" font-family="sans-serif" font-size="12" font-weight="bold" lengthAdjust="spacing" textLength="45.3603" x="576" y="606.896">domain</text><text fill="#666666" font-family="sans-serif" font-size="12" font-weight="bold" lengthAdjust="spacing" textLength="3.12" x="621.3603" y="606.896">&#160;</text><text fill="#666666" font-family="sans-serif" font-size="12" font-weight="bold" lengthAdjust="spacing" textLength="53.0284" x="624.4803" y="606.896">mapping</text><polygon fill="none" points="469.2301,688.9483,469.2305,680.4043,463.6125,682.5108,469.2301,688.9483" style="stroke:#666666;stroke-width:1;"/><path d="M367.0212,574.1221 C374.6581,587.7209 385.0015,602.258 398,612.0679 C407.99,619.6073 415.3328,612.1189 425,620.0679 C446.5379,637.7777 457.8758,658.6656 466.4215,681.4575 " fill="none" style="stroke:#666666;stroke-width:1;"/><text fill="#666666" font-family="sans-serif" font-size="12" font-weight="bold" lengthAdjust="spacing" textLength="26.4722" x="400" y="606.896">map</text><text fill="#666666" font-family="sans-serif" font-size="12" font-weight="bold" lengthAdjust="spacing" textLength="3.12" x="426.4722" y="606.896">&#160;</text><text fill="#666666" font-family="sans-serif" font-size="12" font-weight="bold" lengthAdjust="spacing" textLength="12.3961" x="429.5922" y="606.896">at</text><text fill="#666666" font-family="sans-serif" font-size="12" font-weight="bold" lengthAdjust="spacing" textLength="3.12" x="441.9883" y="606.896">&#160;</text><text fill="#666666" font-family="sans-serif" font-size="12" font-weight="bold" lengthAdjust="spacing" textLength="30.4802" x="445.1083" y="606.896">HTTP</text><text fill="#666666" font-family="sans-serif" font-size="12" font-weight="bold" lengthAdjust="spacing" textLength="3.12" x="475.5885" y="606.896">&#160;</text><text fill="#666666" font-family="sans-serif" font-size="12" font-weight="bold" lengthAdjust="spacing" textLength="57.6724" x="478.7086" y="606.896">boundary</text><!--SRC=[ZLFDRXCn43wpJ-5671AfQYyz0bAQWehKYf3c7ati8JNisiQU5QmG4W_14_8aZFV7yMu9wc5Nu_4tuszclZbp7WuLY18QMvC85H8OACvEkBMHPQrGl5fTNQwkTYjREMlGq9kY84qbYgrLLWG2-KNy-VLRL5RLx5Neq2WqKcCeYfKr1DgWtrtRsYZmpHoSleC6_RcOiJbRY1_5YvHyxfb3UzSP5wwPyU4T15gktyyMEJJ8HwmWy7LlzU1rey2GbcCqltKFpg6F0LLdfG1wj8RXFqyGTaV2hjGII4Vuc7WTS0K1OtOsszpYKX3twCap8rRkhVUs9OMjyJnEobRi6MXrfoaZ_ZGrCN5h_8U5ivvYoz7PeCdwY1LhRybAMpw3ZJQVF0nasaCWNqkgFLx4Fkj0B0YS4hI-OZp_UseF7- -MPHnbCscI0jUB8cVOXdmj-v2enasw7YVenftcVheJD_kvsiU60i6UfzaZbw4nyW53uBcVYmFIJkrFDaDQZqCleZsjcXSaJZlVa_wPczOLn3VjjJcCIy3lyXQCAZlzyWbTLE4GUhlThaMihWjaPXiiqp9bsbHOuW480wDoo7GzWl0O-EsGaCSalLpgVzqbqNdayPkdW5pn7lGnnwZ27DMo8IjYZJssws4xAcq-ewGWGZUU4U0ed07bSuL4O8BqHUdAbLXn5M4AI2BAwXvydP8_REwp6UJtgIlTfavGUUyJaY42g2rQx7jjyQHV4Xp2wrdoB8g_]--></g></svg>